<?xml version="1.0" encoding="UTF-8" standalone="no"?>
<!-- Created with Inkscape (http://www.inkscape.org/) -->

<svg
   xmlns:dc="http://purl.org/dc/elements/1.1/"
   xmlns:cc="http://creativecommons.org/ns#"
   xmlns:rdf="http://www.w3.org/1999/02/22-rdf-syntax-ns#"
   xmlns:svg="http://www.w3.org/2000/svg"
   xmlns="http://www.w3.org/2000/svg"
   xmlns:sodipodi="http://sodipodi.sourceforge.net/DTD/sodipodi-0.dtd"
   xmlns:inkscape="http://www.inkscape.org/namespaces/inkscape"
   width="1052.3622"
   height="744.09448"
   id="svg2"
   version="1.1"
   inkscape:version="0.47 r22583"
   sodipodi:docname="20100613_001_heart-diagram.svg">
  <defs
     id="defs4">
    <inkscape:perspective
       sodipodi:type="inkscape:persp3d"
       inkscape:vp_x="0 : 526.18109 : 1"
       inkscape:vp_y="0 : 1000 : 0"
       inkscape:vp_z="744.09448 : 526.18109 : 1"
       inkscape:persp3d-origin="372.04724 : 350.78739 : 1"
       id="perspective10" />
  </defs>
  <sodipodi:namedview
     id="base"
     pagecolor="#ffffff"
     bordercolor="#666666"
     borderopacity="1.0"
     inkscape:pageopacity="0.0"
     inkscape:pageshadow="2"
     inkscape:zoom="1.1479523"
     inkscape:cx="568.06849"
     inkscape:cy="366.83739"
     inkscape:document-units="px"
     inkscape:current-layer="layer1"
     showgrid="false"
     inkscape:window-width="1440"
     inkscape:window-height="825"
     inkscape:window-x="0"
     inkscape:window-y="25"
     inkscape:window-maximized="1" />
  <metadata
     id="metadata7">
    <rdf:RDF>
      <cc:Work
         rdf:about="">
        <dc:format>image/svg+xml</dc:format>
        <dc:type
           rdf:resource="http://purl.org/dc/dcmitype/StillImage" />
        <dc:title></dc:title>
      </cc:Work>
    </rdf:RDF>
  </metadata>
  <g
     inkscape:label="Layer 1"
     inkscape:groupmode="layer"
     id="layer1"
     transform="translate(0,-308.2677)">
    <path
       style="fill:none;stroke:#000000;stroke-width:1px;stroke-linecap:butt;stroke-linejoin:miter;stroke-opacity:1"
       d="m 330.64578,301.18117 c -0.0516,5.49643 24.09824,73.71324 13.72649,79.20968 -3.09986,-1.85542 5.17211,17.18995 -8.62361,15.8552 -9.28533,-0.89837 -9.16681,-19.88432 -17.03586,-19.86058 -11.24143,0.0339 -19.36293,-27.28726 -19.71111,-38.19028 -0.0818,-2.56117 -8.48151,-32.03055 -8.62361,-32.03055 -0.91824,0 -0.58265,1.81459 -1.23195,2.46388 m 182.32779,86.23612 c -0.81655,7.02345 3.69584,11.47069 3.69584,16.01528 m 73.91667,344.94446 c 4.79117,28.79614 13.96662,57.50679 22.175,86.23612 6.47492,22.66222 17.1997,44.20745 24.63889,66.525 2.76306,8.28918 9.98016,15.37168 13.55139,23.40695 4.28048,9.63108 6.45481,20.3013 11.0875,29.56666 3.24297,6.48595 7.67588,11.94016 9.85555,18.47917 5.53228,16.59683 15.68764,23.65602 22.175,43.11812 1.7698,5.3093 3.14879,16.7001 7.39167,20.943 0.55493,0.5549 6.15972,3.128 6.15972,3.6958 0,0.9183 -1.81459,-0.5826 -2.46389,-1.2319 M 511.10751,843.35435 c 21.87957,48.21049 42.96111,109.66277 72.47336,153.93115 3.27562,4.9134 4.95817,11.1483 7.39167,16.0153 4.98427,9.9686 16.67018,27.7577 23.40694,34.4944 M 521.98365,457.69381 c 0.64929,-0.64929 2.46389,-0.31371 2.46389,-1.23194 0,-1.6426 -2.87454,1.23194 -1.23195,1.23194 1.23195,0 -1.23194,-3.69583 0,-3.69583 1.29779,0 -1.23194,-8.03988 -1.23194,-3.69584 0,0.1215 2.0461,-10.69113 -1.23195,-17.24722 -2.75448,-5.50897 -1.65648,-18.90371 -3.69583,-20.94306 -5.43721,-5.43721 -12.31945,-14.08638 -12.31945,-12.31944 0,0.82129 0.3673,-1.7293 0,-2.46389 -1.75169,-3.50339 -6.15972,-7.65807 -6.15972,-11.0875 0,-2.42366 -5.55824,-6.79019 -7.39167,-8.62361 -3.62663,-3.62662 0.12209,-3.57375 -3.69583,-7.39167 -4.70386,-4.70386 -16.71393,-7.2139 -24.63889,-9.85556 -9.59115,-3.19705 -11.86974,-3.69583 -24.63889,-3.69583 -1.69315,0 -3.73054,-2.42918 -4.92778,-1.23194 -2.14926,2.14926 -10.35323,2.96156 -14.78333,7.39166 -3.63588,3.63588 -8.0728,9.30474 -11.0875,12.31945 -2.26329,2.26328 3.61979,25.1068 4.86586,28.84501 1.47523,4.42569 2.91022,10.77115 1.38141,16.8864 -4.48483,17.9393 1.93967,-31.31166 -12.16999,-24.25683 -3.78705,1.89353 -5.20981,-63.20327 -5.26295,-63.35447 -5.20614,-14.81302 2.34058,-18.64488 4.97906,-30.35024 m 70.26772,91.94124 c -3.89486,3.89486 -3.25424,12.6682 -6.15972,18.47917 -0.93303,1.86606 -2.525,8.50138 -1.23195,11.0875 2.26532,4.53063 1.34732,13.66676 4.92778,17.24722 3.91114,3.91113 21.6219,1.91079 23.40695,3.69583 1.43727,1.43727 5.9544,-0.20532 7.39167,1.23195 8.36039,8.36039 35.66356,10.96184 44.35,28.33472 4.21719,8.4344 10.21528,17.96667 14.78333,27.10278 3.92237,7.84474 9.77792,10.8546 12.31945,18.47917 3.65383,10.96151 -0.0907,25.68945 4.92777,35.72639 2.28101,4.56201 -3.4992,10.24882 -1.23194,14.78333 4.46982,8.93964 5.72097,53.85113 1.23194,62.82917 -2.02832,4.05666 3.05092,15.42825 0,18.47917 -7.70934,7.70934 -9.03793,50.93507 -12.31944,64.06112 -3.86169,15.44676 -13.47889,29.27668 -17.24722,44.35 -3.31619,13.26474 -5.476,26.32871 -11.0875,39.42222 -3.19132,7.44642 -7.9499,15.7843 -9.85556,23.40695 -0.91538,3.66153 -2.27944,10.90305 -4.92778,13.55139 -9.71177,9.71177 -22.29581,11.14791 -34.49444,17.24722 -3.73821,1.8691 -9.91088,0.64363 -13.55139,2.46389 -8.73037,4.36518 -24.13038,2.82561 -28.33473,4.92778 -4.91069,2.45534 -12.63483,1.23194 -18.47916,1.23194 -22.16624,0 -29.4986,-4.8597 -45.58195,-20.94305 -5.8268,-5.8268 -15.72304,-9.56332 -19.71111,-13.55139 -7.34293,-7.34293 -11.75378,-21.60933 -14.78334,-24.63889 -8.76421,-8.76422 -15.36351,-19.34944 -24.63889,-33.26251 -4.53274,-6.7991 -15.39115,-11.07118 -18.47917,-17.24722 -5.68599,-11.37199 -15.46553,-19.84357 -20.94305,-30.79861 -2.0999,-4.19979 -9.61548,-6.67143 -11.0875,-11.0875 -4.78359,-14.35076 -18.85551,-24.58743 -27.10278,-36.95834 -9.64602,-14.46902 -14.44123,-29.43017 -18.47917,-45.58194 -6.48652,-25.94609 8.52992,-51.64798 24.63889,-67.75695 5.49021,-5.49021 9.31839,-15.47812 14.78333,-20.94306 5.19225,-5.19225 7.77133,-26.63015 11.08751,-33.2625 1.14981,-2.29963 -1.14982,-6.32398 0,-8.62361 5.78098,-11.56197 1.7719,-30.20666 -2.46389,-41.88611 l 0,-4.92778 c -26.11089,-33.10795 -49.61411,-66.30205 -62.82917,-105.94723 -4.24647,-12.73939 -7.92724,-32.56612 -17.24723,-41.88611"
       id="path2816"
       sodipodi:nodetypes="ccssssccscssssssssscssscsssssssssssssssssscsccssssssssssssssssssssssssssssssssssccsc" />
    <path
       style="fill:none;stroke:#000000;stroke-width:1px;stroke-linecap:butt;stroke-linejoin:miter;stroke-opacity:1"
       d="m 346.17641,-4.927778 c 4.12486,4.12485977 -0.12133,15.409724 1.23194,20.943057 l 0,4.927778 c 0.8213,-1.642593 2.46389,-6.764253 2.46389,-4.927778 0,2.211408 -1.76458,4.061796 -2.46389,6.159722 -1.44612,4.338378 -0.20061,26.500949 1.23195,30.798613 3.11959,9.358773 3.72189,19.815352 6.15972,29.566668 3.49805,13.992218 8.20528,27.474998 11.0875,41.886118 1.16866,5.84332 0.56677,11.55586 2.46389,17.24722 4.65777,13.97331 1.83138,47.41333 11.0875,56.66945 1.7457,1.74569 0.70885,5.11355 1.23194,6.15972 0.8213,1.64259 0.99471,6.28978 2.46389,7.39167 1.90564,1.42922 3.78635,19.80162 6.15972,22.175 1.45756,1.45755 -4.14322,57.454 0,61.59722 1.64626,1.64626 2.40214,33.56157 3.75775,34.91719 6.13327,6.13326 8.08163,19.91789 11.65969,16.33983 4.66595,-4.66595 8.49473,-31.54591 11.68534,-31.54591 1.13701,0 -3.30608,34.97582 -5.82453,37.49427 -4.82264,4.82264 -3.24618,20.24017 -17.94324,12.89164 -5.24266,-2.62133 -12.47913,-27.04087 -8.62361,-27.04087 4.91077,0 -6.0168,26.99206 -5.01533,30.26268 10.35026,33.80209 10.40367,22.98109 12.76782,27.70062 4.48331,8.95001 11.93573,15.89815 -4.35558,7.75249 -7.91766,-3.95883 -19.17802,-7.48335 -22.26255,-16.73692 -1.98399,-5.95198 -2.81075,-6.64209 -5.49997,-12.02054 -1.64259,-3.28518 2.5137,-11.6476 0.87111,-14.93278 -0.81898,-1.63795 0.26889,-6.03777 1.3814,-8.26279 3.27282,-6.54563 17.27657,-57.35806 12.61837,-66.67446 -2.05358,-4.10717 -11.23002,-39.13719 -9.85556,-41.88612 1.93629,-3.87257 -3.41439,-22.64654 -2.46389,-23.40694 1.86977,-1.49581 3.03802,-7.55322 3.69583,-9.85556 0.78965,-2.76376 -0.38069,-4.6925 -1.38593,-7.23767 1.52785,-0.0121 -0.73022,-7.02406 -3.54184,-11.24149 -3.91983,-5.87974 4.89486,-14.84918 1.23195,-22.17501 -2.2571,-4.51418 -1.74929,-10.0156 -4.92778,-14.78333 -5.78089,-8.67133 -9.07463,-18.14926 -13.55139,-27.10278 -4.40166,-8.80331 -11.65141,-16.47505 -14.78334,-25.87084 C 325.5899,92.233558 303.50358,75.593845 296.89863,68.988892 295.14083,67.231091 277.66787,7.6576593 275.95557,-1.2319445 m -66.525,0 c 9.48129,24.1230615 25.28961,44.4195125 36.95833,67.7569475 2.6945,5.389003 9.87968,12.367681 13.55139,19.711113 3.55096,7.101925 7.91829,21.469684 13.55139,27.102774 9.92151,9.92151 17.30407,31.026 20.94306,45.58195 2.80695,11.22782 1.23194,24.85843 1.23194,36.95834 0,10.15788 3.22038,27.29719 0,36.95833 -6.12097,18.36292 -20.33044,42.19913 -30.79861,57.90139 -4.64042,6.96063 -20.99832,9.74504 -16.01528,19.71112 0.98556,1.97111 -0.98556,5.42055 0,7.39166 6.32275,12.6455 17.97114,26.59475 28.33472,36.95834 4.23459,4.23458 8.27256,10.79145 9.85556,16.01528 3.26248,10.76604 3.13582,27.5928 22.32446,27.55116 5.97872,-0.013 27.35669,-3.91672 24.97408,-7.41731 -2.05227,-3.01525 11.20683,-4.10672 25.29864,8.32469 2.64906,2.33693 15.79006,14.72143 12.25753,14.72143 -0.40421,0 -12.61134,-3.39341 -14.3606,-4.26803 -3.23326,-1.61664 -6.03161,-1.40062 -9.85555,-2.67527 -3.65535,-1.21845 -13.04274,10.49636 -16.3142,8.86062 -2.54069,-1.27034 -0.9323,14.18708 -2.88663,15.16981 -9.62785,4.84135 18.24987,43.44902 12.19563,30.43779 -0.98,-2.10613 16.5014,13.58912 18.14399,15.23171 9.24689,9.24689 25.11663,25.66664 35.40182,30.80924 7.03886,3.51943 17.51325,6.42575 23.40695,12.31944 0.87112,0.87112 7.25522,0 8.62361,0 18.40105,0 23.40695,-8.28388 23.40695,-25.87083 0,-14.92751 -5.92048,-32.784 -12.31945,-45.58195 -3.24544,-6.49088 0.76397,-16.95124 -2.46389,-23.40694 -4.98316,-9.96633 -8.49424,-23.14822 -12.31944,-30.79862 -5.86158,-11.72315 -7.41732,-8.51618 -7.41732,-19.95874 0,-11.69376 7.39521,-32.30029 16.46366,-36.83452 0.32074,-0.16037 -3.72585,18.7118 -2.76281,19.67485 5.60776,5.60775 -0.25114,5.07021 5.52563,16.62374 0.48441,0.96883 5.90097,10.15447 8.20087,10.15447 0.14493,0 8.52999,-8.74136 8.71116,-8.92253 5.35188,-5.35187 -1.92991,-27.30157 -0.80921,-28.42228 4.39063,-4.39062 -6.51001,-12.36616 -3.27309,-18.83999 12.11141,-24.22283 -11.60678,-56.99532 -18.47917,-77.61251 -2.51896,-7.55688 0,-18.86626 0,-27.10277 0,-9.04898 -10.83745,-38.67207 -14.78333,-50.50972 -3.05102,-9.15306 -4.00316,-30.15348 -2.46389,-22.17501 0.71415,3.70161 -26.76175,-28.321 -16.67503,-36.29859 2.02461,-1.60126 -5.40373,-7.32961 -9.49474,-32.788476 -0.51547,-3.207843 -0.0619,-42.896664 -0.0619,-31.695372 l 0.36082,-16.25229 c -0.0325,-3.755334 1.23195,-5.939731 1.23195,-9.855556 0,-9.797928 1.23194,-19.2889234 1.23194,-29.5666685 0,-2.0499502 -1.23194,-13.6748065 -1.23194,-7.3916675"
       id="path2824"
       transform="translate(0,308.2677)"
       sodipodi:nodetypes="cccsssssssssssssssssssssssssssscssssssccssssssssssssssssssssssssssssssssssssssssssccssc" />
    <path
       style="fill:none;stroke:#000000;stroke-width:1px;stroke-linecap:butt;stroke-linejoin:miter;stroke-opacity:1"
       d="m 542.70546,469.69284 c 6.30035,19.12164 8.9,38.70678 17.42233,55.75145 0.67868,1.35735 0.49608,4.59767 0.87112,6.09781 2.09741,8.38966 4.24747,16.22688 6.96893,24.39126 1.3706,4.11182 0.40804,9.06418 1.74223,13.06674 5.25314,15.75943 12.71595,31.17891 18.29344,47.9114 3.05,9.14999 9.46998,18.01268 13.06675,27.00461 1.50897,3.77243 2.2895,8.75216 4.35558,12.19562 3.15161,5.2527 7.64331,9.90071 11.32451,14.80898 1.94907,2.59875 3.63831,6.7132 4.35558,9.58228 2.01662,8.06647 10.31962,18.15967 14.80898,22.64903 3.41892,3.41892 7.7953,19.94617 10.4534,25.26237 3.37526,6.75054 10.60366,20.18594 15.68009,25.26237 1.36987,1.36987 4.9293,3.76079 6.09781,6.09782 0.8315,1.66299 0.407,3.89146 1.74224,5.22669"
       id="path2843"
       transform="translate(0,308.2677)" />
    <path
       style="fill:none;stroke:#000000;stroke-width:1px;stroke-linecap:butt;stroke-linejoin:miter;stroke-opacity:1"
       d="m 522.66979,537.63992 c 10.36535,21.33751 22.85441,41.35325 33.10242,61.84925 4.46658,8.93316 7.86038,18.33411 12.19563,27.00461 4.31392,8.62784 15.18972,24.17199 17.42232,33.10242 2.66603,10.6641 8.68393,30.01266 14.80898,39.20023 4.13654,6.20481 10.52833,10.60326 13.93786,17.42233 3.36897,6.73794 6.73102,12.08948 10.4534,18.29344 2.63938,4.39898 3.81004,12.52121 6.96893,15.6801 4.12669,4.12669 3.81735,7.6347 6.09781,12.19563 0.7572,1.51439 4.3065,4.35558 2.61335,4.35558 -0.82129,0 -1.16149,-1.16149 -1.74223,-1.74224"
       id="path2845"
       transform="translate(0,308.2677)" />
    <path
       style="fill:none;stroke:#000000;stroke-width:1px;stroke-linecap:butt;stroke-linejoin:miter;stroke-opacity:1"
       d="m 448.6249,299.82516 c 7.74533,-7.74532 30.72738,11.56282 34.84466,15.6801 1.80871,1.80871 11.28021,14.80897 11.32451,14.80897 0.44458,0 -4.79925,-6.54147 -5.2267,-6.96893 -2.93678,-2.93678 -16.53196,-11.32451 -20.90679,-11.32451 -1.1982,0 -3.09524,2.22413 -3.48447,2.61335 -0.41065,0.41065 -1.33158,-0.41065 -1.74223,0 -7.92892,7.92892 4.63882,24.69589 -0.87112,35.71577 -2.54924,5.09848 -3.49086,36.59328 -5.22669,38.32912 -2.34998,2.34997 -6.84472,24.26704 -6.96893,24.39125 -3.44487,3.44487 -0.058,11.49851 -1.74224,16.55121 -6.02188,18.06564 8.08992,63.09519 18.29345,78.40047 5.08805,7.63208 11.81911,9.82958 18.29344,13.06675 2.78757,1.39378 -1.74223,-6.96893 5.2267,0 0.84657,0.84661 -2.32298,0.58074 -3.48447,0.87111 16.83863,8.41933 20.68749,-12.84744 27.00461,-19.16456 1.70559,-1.70559 5.59048,-16.40767 6.96893,-19.16456 3.70871,-7.41742 8.37006,-10.98341 13.93786,-16.55121 0.79761,-0.79761 5.51541,-13.93288 6.09781,-15.68009 4.34926,-13.04779 4.44368,-28.22813 7.84005,-41.81358 0.74752,-2.99009 -0.10211,-6.66262 0.87112,-9.58228 4.74923,-14.24771 5.87773,-28.95773 10.45339,-42.6847 1.23334,-3.70003 -0.0475,-9.48731 1.74223,-13.06675 3.09094,-6.18187 5.2267,-15.42954 5.2267,-22.64902 0,-3.95559 4.86874,-33.46038 4.35558,-33.97354 -1.5506,-1.5506 -6.91827,-15.57878 -8.71116,-19.16456 -2.58773,-5.17545 -8.62515,-6.0118 -11.32451,-8.71116 -1.44806,-1.44806 -8.17608,1.91025 -9.58228,2.61335 -6.11893,3.05947 -17.30001,-3.36215 -20.03568,-6.09781 -6.56256,-6.56256 -11.13683,-15.49242 -18.29344,-22.64903 -1.08589,-1.08589 0.30353,-5.21892 -1.74223,-6.09781 l 4.35558,3.48446 c 7.63587,7.60687 16.93752,14.13102 27.00461,19.16456 2.05509,1.02755 5.83727,1.48169 6.96893,2.61335 0.68097,0.68097 1.51543,-0.75772 1.74223,-0.87112 1.23247,-0.61623 4.25537,0.10022 5.2267,-0.87111 3.86067,-3.86067 7.84004,-6.87495 7.84004,-13.93786 0,-16.71423 -14.77794,-39.13817 -21.7779,-53.1381 -3.98612,-7.97223 -10.07914,-16.17695 -15.6801,-21.77791 -4.8952,-4.89519 -10.7829,-6.42731 -14.80898,-10.45339 -0.76086,-0.76087 -8.49172,-2.50363 -10.45339,-3.48447 -4.92127,-2.46063 -32.19884,0.90359 -34.84465,-1.74223 -1.85119,-1.85119 -3.48579,-2.616 -5.2267,-6.09781 -0.78515,-1.5703 0.34025,-5.75757 -0.87112,-6.96893 -1.76831,-1.76832 -5.40293,-1.04735 -6.09781,-1.74224 -0.43556,-0.43556 0.43556,-2.17779 0,-2.61335 -9.07739,-9.07738 10.9186,-45.763247 13.93786,-48.78251 l 2.61335,-4.355581 c 3.58587,-3.771184 8.22281,-8.222815 11.32451,-11.324513 0.98117,-0.981169 4.09423,0.871117 5.2267,0.871117 M 416.3936,180.48223 c 1.71115,-11.65227 -6.01179,-41.98564 -1.74223,-50.52475 1.76313,-3.52627 -0.46134,-9.94051 0.87111,-13.93786 0.90952,-2.72854 -0.40399,-5.28984 0.87112,-7.84005 1.53147,-3.06294 -0.58297,-22.066053 0.87112,-23.520138 0.72677,-0.72678 5.71275,-18.394435 6.96893,-20.906792 2.34627,-4.692542 13.86784,-15.750108 17.42232,-12.195628 M 424.23365,210.10018 c 0,2.07616 3.39141,9.48923 6.96893,13.06675 3.22371,3.22371 2.8741,11.58526 6.09781,14.80897 8.15215,8.15215 18.88163,14.80898 33.10242,14.80898 8.78234,0 18.14506,-10.15662 20.90679,-15.68009 0.84441,-1.68882 -0.54701,-12.74265 0,-12.19563 2.32298,2.32298 3.77484,5.51707 6.09782,7.84005 3.05881,3.05881 -1.4829,17.16298 -2.61335,18.29344 -3.03899,3.03898 -13.11347,5.27342 -14.80898,6.96893 -1.97564,1.97563 -5.35831,3.61607 -6.96893,5.2267 -1.47061,1.4706 -2.39821,4.14044 -3.48447,5.22669 -3.77982,3.77982 11.92361,27.73971 15.6801,29.61796 2.88344,1.44172 5.49546,2.011 7.84004,4.35558 1.83197,1.83197 5.37264,1.88817 6.96894,3.48447 0.23892,0.23892 3.48446,3.08368 3.48446,2.61334 0,-0.36613 -10.05973,-2.61334 -11.32451,-2.61334 -8.00781,0 -20.90748,-6.0985 -27.00461,-12.19563 -6.26276,-6.26276 -14.12753,-11.58943 -16.55121,-20.03568 l -5.2267,0.87112 c -4.67204,-3.34107 -8.54691,-9.41804 -12.19562,-13.06675"
       id="path2849"
       transform="translate(0,308.2677)" />
  </g>
</svg>
